<svg width="1008" height="1456" xmlns="http://www.w3.org/2000/svg"><path d="M902.67 442.233c9.315-9.383 15.392-7.095 25.754.466 10.292 7.422 23.472 18.648 38.677 33.889 15.508 15.59 26.476 28.637 33.904 38.743 7.708 10.27 10.385 17.06 1.071 26.396L889.537 654.922c67.994 87.709 103.76 192.712 103.76 304.086 0 120.29-43.31 236.029-121.969 326.421l127.79 126.965c6.8 6.769 8.267 13.304 8.267 17.598.024 5.462-2.282 10.806-6.45 14.984-4.098 4.178-9.081 6.395-14.39 6.442-4.238.023-10.758-1.424-17.767-8.38l-127.162-126.31c-92.77 89.645-214.6 138.984-343.624 138.984-126.254 0-246.058-47.472-338.106-133.733L39.523 1443.015c-6.799 6.839-13.319 8.262-17.58 8.262-5.472 0-10.781-2.31-14.95-6.488-4.144-4.13-6.356-9.125-6.38-14.47 0-4.224 1.444-10.76 8.406-17.785l120.736-121.363C47.79 1199.868 2.685 1082.145 2.685 959.008c0-127.572 48.132-248.539 135.522-341.102l-48.154-47.845c-5.91 5.97-33.334 33.727-34.429 34.835l-.034.034c-7.87 7.958-11.386 17.41-9.593 25.906l1.746 8.332-8.196-2.17c-8.965-2.357-16.859-6.862-23.495-13.397-22.727-22.756-21.167-57.53 3.702-82.667l9.135-9.241.559-.565 1.124-1.137.845-.855.562-.569 8.08-8.172L13.42 493.93c-7.032-6.955-8.522-13.49-8.522-17.738-.023-5.345 2.142-10.34 6.24-14.47 4.169-4.225 9.478-6.582 14.95-6.605 4.261-.024 10.78 1.354 17.627 8.122l125.439 124.63c90.697-80.8 207.287-125.26 328.838-125.26 105.204 0 205.587 32.651 290.463 94.337zm-221.445 715.135c-50.017 46.491-114.844 72.07-183.233 72.07-66.085 0-129.258-24.109-178.577-67.893L169.76 1312.036c89.393 83.648 205.704 129.672 328.233 129.672 125.276 0 243.59-47.868 333.704-134.853zm-156.92-201.884l-15.579 15.684 467.41 464.356c3.54 3.547 7.125 5.39 10.362 5.39 2.492-.022 4.844-1.143 6.986-3.313 1.56-1.587 3.423-4.178 3.423-7.586-.024-3.29-1.817-6.791-5.193-10.152 0 0-232.04-230.52-467.41-464.38zm247.524-278.95c-24.73 17.015-84.736 69.2-96.239 80.637l-.093.023-659.003 662.739c-3.54 3.548-5.402 7.142-5.38 10.363 0 2.52 1.096 4.877 3.261 7.048 1.584 1.564 4.145 3.43 7.568 3.43 3.283 0 6.776-1.796 10.152-5.18 376.97-379.098 376.946-379.075 659.143-662.856 10.315-10.386 63.406-71.207 80.591-96.204zm-275.7 610.926l13.529.14-.676 97.37-13.575-.022.722-97.488zm-61.567.07c5.682-4.248 12.737-5.788 20.957-4.574 18.768 2.73 26.755 14.003 24.38 34.588l-.163.77-13.925-2.007.14-.817c.21-1.82.326-3.5.326-5.088 0-9.615-4.075-14.913-12.388-16.174-14.484-2.1-19.56 12.323-23.006 36.27-2.096 14.376-3.283 28.683 2.189 36.012 2.165 2.917 5.285 4.62 9.523 5.228 12.848 1.898 16.884-9.384 19.013-20.885l.128-.704.07-.91 13.995 2.03s-.163.98-.163 1.004c-3.26 15.894-11.923 34.145-34.696 30.737-8.522-1.19-14.996-4.667-19.21-10.339-8.337-11.156-6.94-29.5-4.774-44.227 1.933-13.374 5.868-32.162 17.604-40.914zm141.273-7.655l1.7 12.09-.35.046c-1.443.187-34.206 4.831-36.86 5.111l1.715 12.401.124.897.062.449.187 1.348c.888 6.425 1.733 12.535 1.777 12.866l16.236-2.268 1.042-.145 17.813-2.489 1.654 12.113-16.23 2.282-1.04.146-.52.073-1.04.146-16.215 2.278c.044.33 1.024 7.314 2.057 14.694l.199 1.416c1.103 7.877 2.203 15.748 2.238 16.075.361-.059 10.048-1.4 19.644-2.728l1.15-.16 17.953-2.48 1.7 12.066-52.183 7.282-13.389-96.46 50.576-7.05zm-207.218-11.717c6.404-2.964 13.622-2.964 21.423-.023 7.754 2.964 13.18 7.725 16.137 14.167 6.054 13.467.442 31.741-4.285 44.321-4.703 12.627-12.527 30.13-25.893 36.152-6.473 3.058-13.692 3.058-21.446 0-7.777-2.894-13.203-7.608-16.137-14.05-1.91-4.2-2.678-8.869-2.678-13.7 0-10.62 3.68-21.985 6.916-30.667 4.774-12.65 12.69-30.178 25.963-36.2zm272.44-11.389l4.146 11.53-10.145 3.594-.77.273-.771.273-.77.273a2395.82 2395.82 0 01-10.248 3.615c.648 1.837 7.128 20.167 13.723 38.818l.825 2.332c6.87 19.427 13.604 38.472 13.744 38.857l.117.327-12.784 4.48s-28.13-79.61-28.362-80.263c-.315.113-5.584 1.972-10.951 3.864l-1.15.406-10.463 3.689-4.075-11.46 57.935-20.608zm-255.022 22.102c-3.982-1.564-7.545-1.564-10.851 0-8.473 3.815-14.235 16.998-18.938 29.381l-.389 1.03c-5.1 13.63-9.291 27.4-5.519 35.686 1.49 3.314 4.168 5.648 8.197 7.141 4.005 1.54 7.59 1.54 10.967.024 8.066-3.724 13.839-16.198 18.82-29.36l.414-1.098c8.5-22.569 11.014-37.6-2.701-42.804zm-75.608-42.734c6.73-1.75 14.204-.163 22.214 4.668 15.648 9.499 18.722 21.892 9.454 37.833l-.442.84-11.596-7.002s.419-.84.442-.84c5.682-9.499 4.564-15.94-3.656-20.982-4.121-2.497-7.987-3.337-11.503-2.497-3.47.91-6.403 3.36-8.755 7.352-5.404 8.904-1 15.843 4.905 22.925l.446.531.224.266.453.533.228.266.457.535.46.535.232.268.738.853.493.572c.412.478.823.96 1.232 1.446l.49.585.244.295.485.591c6.833 8.418 12.247 18.225 3.816 32.23-4.564 7.656-10.386 12.417-17.302 14.144-9.85 2.358-19.257-2.007-23.96-4.83-8.616-5.205-13.576-10.923-15.206-17.505-1.746-7.165.42-15.66 6.637-25.953l.465-.794 11.55 7.025s-.42.747-.42.77l-.357.599-.352.595c-5.581 9.511-8.65 18.086 4.25 25.973 3.888 2.217 8.103 2.894 11.945 1.914 3.935-.934 7.311-3.547 9.756-7.515 1.747-2.894 2.469-5.602 2.469-8.146 0-6.534-4.75-12.206-9.71-18.11-5.59-6.559-11.69-13.724-11.69-22.943 0-4.178 1.234-8.776 4.355-13.91 2.375-3.968 7.684-10.946 16.509-13.117zm389.753-15.614l.07.56s.093.794.07.794c1.018 6.551 2.502 16.139 3.998 25.839l.257 1.663c2.693 17.466 5.344 34.755 5.315 34.813l20.468 32.442-11.41 7.258-.21-.326s-.256-.444-.233-.444c-18.349-29.01-19.816-31.368-19.816-31.461l-.562-.38-.42-.284a95482.34 95482.34 0 01-24.977-16.947l-1.603-1.088-24.428-16.578-.525-.356c-.63-.427-.971-.66-.971-.66l.442-.303s11.945-7.585 12.341-7.585c0 0 36.489 26.093 37.793 27.05-.126-.789-1.973-11.928-3.825-23.085l-.227-1.365-3.598-21.67-.026-.155-.009-.053 12.086-7.679zm-198.882-241.91l-171.987 173.013c46.641 41.147 106.299 63.81 168.68 63.81 64.641 0 125.929-24.133 173.291-67.94L501.298 978.612zm-31.575 124.724c-2.259 16.128-3.656 33.352-3.586 48.71.163 26.21-35.72 26.302-36.349.793-.093-3.478-.023-6.885-.093-10.386.815-12.23 6.427-20.562 20.282-26.28 8.057-3.338 15.927-7.609 19.746-12.837zm374.128.164c-19.979-10.106-33.438-13.093-43.59-9.733-6.287 2.054-11.317 6.629-14.926 13.63a22.983 22.983 0 00-2.469 10.34c0 4.97 2.096 9.942 5.356 13.886l-10.06-5.25-4.82 8.751 45.128 23.41 14.18-27.284-9.453-5.205-3.938 7.495-.361.689-.544 1.034a4114.072 4114.072 0 00-4.052 7.727l-.803-.436-.8-.441c-10.387-5.758-19.89-12.698-19.89-21.622 0-2.124.536-4.388 1.747-6.745 1.956-3.828 4.634-6.232 8.173-7.399 8.755-2.824 21.912 2.848 34.835 9.382 12.9 6.582 25.265 13.887 28.176 22.686 1.14 3.594.721 7.189-1.258 11.04-4.261 8.425-12.132 10.082-23.192 5.158l-6.124 11.95c16.928 8.355 30.923 4.154 39.19-12.067l.243-.495c3.517-7.244 4.25-14.218 2.155-20.767-4.541-13.84-20.957-23.596-32.903-29.734zm-269.809-7.072c2.142 17.201 3.19 35.195 2.561 54.217-.838 25.416-36.744 25.043-36.371-1.167.023-1.33 0-2.59 0-3.944.232-14.47 5.146-22.896 15.531-30.155 8.709-6.091 14.996-11.74 18.28-18.951zm-11.899-55.127a322.497 322.497 0 019.408 39c1.397 10.199-5.566 19.581-18.838 28.427-4.89 3.29-10.293 8.635-13.017 14.703-.699-9.942-2.096-21.402-3.726-31.297-.861-11.11 2.12-20.352 10.968-27.704 8.825-7.492 13.599-14.937 15.205-23.13zm-385.305-8.612l-.442 1.12c-1.235 3.198-3.61 5.625-12.644 9.242l-15.16 6.115c-7.264 2.988-11.479 8.8-11.479 15.357 0 .654.14 1.33.233 2.008-7.265-10.083-19.98-7.842-27.128-5.438-7.032 2.474-12.155 6.651-14.833 12.066-2.724 5.648-2.864 12.51-.349 19.862l10.106 29.57.163.094 91.396-31.065-3.936-12.136-40.447 13.396s-1.397-4.317-4.68-14.026c-.792-2.428-1.42-4.575-1.42-6.652 0-4.598 3.097-8.145 9.454-10.83l13.761-5.577c0-.01.072-.044.162-.085l.188-.081.163-.068c4.447-2.007 10.478-4.971 11.829-7.725.023-.047.023-.07.023-.117v-.03l-.002-.016-.003-.036c-.029-.25-.19-.834-.837-2.791l-.103-.313c-.608-1.832-1.597-4.749-3.2-9.44l-.815-2.404zm303.853 21.518c-2.818 9.36-5.938 20.002-7.382 29.478-1.91 12.673-9.966 19.418-25.148 25.906-6.916 2.941-13.785 7.259-17.744 12.72.838-13.303 2.538-27.4 5.076-39.606 2.143-10.316 10.898-16.688 23.1-19.068 8.755-1.728 16.486-4.692 22.098-9.43zm-172.127-267.07c-42.659 47.216-66.154 108.06-66.154 171.87 0 58.791 20.258 116.019 57.073 161.507l119.152-119.8c-6.218.677-13.715-.537-21.376-7.002-10.449-8.814-15.03-12.542-19.71-11.336l-.161.043.697-.206c8.556-2.599 15.801-6.46 21.964-8.795l.656-.244c7.474-2.707 16.44 1.4 28.105 5.625 2.539.91 5.705 1.867 9.105 2.52l6.962-7.001c-3.376-.234-6.985-.957-10.804-2.381-13.156-4.901-18.256-6.255-23.146-4.061 2.48-1.67 7.715-4.959 13.072-8.3l.805-.502 1.205-.751.8-.499c6.385-3.975 12.285-7.632 13.155-8.27 1.723-1.26 1.467-2.216.466-3.01-1.397-1.12-4.657-3.478-8.988-6.722-6.567-4.9-7.894-16.08-10.06-28.333-1.606-9.01-2.864-14.564-10.012-22.056l59.308 58.931.093-.093zm380.904 2.264L531.71 948.04l.07.07 22.796-22.92c2.865.514 5.799 1.214 8.826 2.358 13.156 4.901 18.744 6.115 23.145 4.06-2.61 1.77-8.026 5.109-13.596 8.485l-.956.579-.478.289-.955.577a2131.551 2131.551 0 01-14.076 8.416c-1.84 1.073-1.56 2.357-.466 2.987 1.095.63 6.334 2.38 10.688 6.021 6.264 5.275 7.87 16.758 10.06 28.988.395 2.264.791 4.27 1.303 6.161l12.645 12.557c-2.26-3.548-3.936-8.216-5.216-14.704-.502-2.562-.966-4.986-1.416-7.253l-.206-1.035c-1.886-9.384-3.58-15.903-6.854-18.085a669.863 669.863 0 008.588 4.51l1.18.61c6.684 3.456 13.261 6.822 17.033 9.047 7.545 4.457 10.06 12.65 13.296 24.67 2.073 7.678 5.472 17.97 15.997 19.557-6.869-.49-19.047-3.22-26.801-6.161-3.283-1.26-6.054-2.544-8.5-4.085l102.573 101.9c34.346-44.625 53.254-100.01 53.254-156.63 0-62.782-22.773-122.717-64.175-169.606zm-573.467 284.314c16.279-5.344 20.225 6.04 22.37 12.187.023.163 3.585 10.55 3.585 10.55l-30.643 10.409-.98-2.953-.195-.585-1.286-3.87-.214-.645-.943-2.835-.148-.445-.406-1.214-.02-.057c-.885-2.637-1.327-5.11-1.327-7.328 0-6.302 3.446-10.923 9.71-13.047zm704.076-61.518l-3.586 12.51 73.093 19.185-80.032 9.895-4.774 16.688 93.375 24.506 3.563-12.463-75.539-19.885 83.06-10.106 4.261-16.01-93.421-24.32zm-287.227-2.077l24.66 24.53c-1.211 8.425-7.15 17.76-14.81 24.202-5.053 4.248-8.732 9.452-10.223 15.964-2.398-10.526-5.937-23.876-9.523-34.169-2.725-8.658-.745-17.644 6.217-25.79a70.722 70.722 0 003.679-4.737zm-32.716-2.614c-5.332 9.896-9.594 19.091-13.599 29.687-4.238 11.203-13.994 17.038-29.596 19.815-7.241 1.307-13.18 4.038-17.743 8.216 2.98-12.51 6.31-23.41 10.432-34.496l15.764-15.87c3.423-1.12 7.265-1.914 11.55-2.45 8.615-1.075 16.812-2.195 23.192-4.902zm-335.707-31.671c-11.363-9.126-30.434-8.192-43.777-6.699-13.366 1.54-32.18 4.878-41.262 16.268-4.377 5.554-6.147 12.486-5.239 20.631.908 8.263 4.145 14.68 9.617 19.069 11.154 9.032 29.316 8.355 43.87 6.745 14.553-1.704 32.39-5.088 41.262-16.268 4.377-5.461 6.147-12.416 5.216-20.678-.908-8.239-4.168-14.657-9.687-19.068zm336.848 2.94l26.662 26.467c-1.234 1.984-2.585 3.92-4.168 5.788-3.4 3.874-6.497 8.986-6.776 14.797-3.982-9.359-8.36-19.231-13.39-28.03-6.45 4.574-15.578 6.325-27.127 7.142-.443.046-.885.07-1.304.093l26.103-26.257zm114.541 5.485c2.723.47 5.852 1.108 8.97 1.8l1.1.246c5.487 1.24 10.789 2.605 13.612 3.462 8.056 2.404 13.529 8.332 21.702 17.668 5.262 5.975 15.787 14.587 24.45 11.646-13.762 5.998-25.242 6.932-37.071 6.325-7.242-.257-18.861-4.761-23.006-20.165-3.19-11.81-5.472-18.275-9.757-20.982zM315.34 976.28c2.305 3.15 5.402 5.578 9.291 7.469 8.243 3.99 13.855 11.32 21.19 21.378l.759 1.03c5.414 7.292 11.238 13.991 20.78 13.79-19.42 3.852-35.091 2.591-42.822.21-5.519-1.726-14.111-8.005-10.618-22.522 2.165-8.892 3.004-14.89 1.42-21.355zm-193.2 6.558c14.437-1.587 28.805-2.287 35.953 3.478 2.91 2.287 4.564 5.485 5.03 9.779.07.77.116 1.494.116 2.217 0 3.314-.931 6.115-2.84 8.542-5.775 7.189-19.91 9.686-34.3 11.297-24.054 2.707-39.283 1.447-40.936-13.21-.489-4.365.396-7.89 2.701-10.806 4.634-5.812 14.554-9.08 34.276-11.297zm242.682 2.544c8.313-1.423 15.485 4.621 25.055 12.533 6.124 5.088 13.063 8.706 22.354 7.89-9.151 4.924-19.886 8.915-28.664 11.039-10.176 2.473-19.094.326-29.363-13.187-8.5-11.18-11.876-15.217-16.929-16.267 8.616 1.633 19.886-.7 27.547-2.008zm358.83-11.226c-6.288 18.718-13.483 29.851-25.964 38.066-5.053 3.338-18.116 4.295-28.525-7.795-9.174-10.62-10.78-11.46-15.252-12.836 4.937-.117 11.946-1.704 15.346-2.894 8.312-2.871 16.16-3.291 28.548-3.898 7.94-.374 22.4-2.217 25.846-10.643zm-419.698-23.549c0 5.625 2.584 12.813 4.89 17.038 2.864 4.504 2.375 11.693-1.165 24.342-2.258 8.099-2.77 17.855 2.05 22.15-16.487-9.71-21.889-17.225-24.24-20.516-4.495-6.231-6.777-18.368 4.214-27.423 10.804-8.916 13.482-10.76 14.25-15.591zm518.568 27.564l-1.304 12.906 96.239 7.959 1.397-13.117-96.332-7.748zm-102.41-58.115c6.706 13.513 7.358 27.494 6.38 37.996-.745 8.076-6.985 16.594-23.472 18.415-8.266.91-14.81 1.027-21.003 3.734 3.935-3.828 8.616-11.436 9.943-17.178 2.724-11.67 7.195-13.046 17.44-21.495l.57-.472.566-.478c6.01-5.125 11.176-11.252 9.576-20.522zm-404.679-.77c-3.912 3.85-8.615 11.436-9.943 17.177-2.7 11.67-7.172 13.047-17.417 21.496-6.473 5.321-12.435 11.623-10.735 21.472-6.683-13.514-7.358-27.494-6.38-37.973.745-8.075 7.009-16.617 23.495-18.438 8.266-.91 14.81-1.027 20.98-3.734zm602.024-16.08L822.126 931.7l.652 15.94 97.613 19.512-.326-13.42s-19.93-3.54-40.225-7.142l-2.298-.408c-17.23-3.058-34.191-6.067-38.907-6.896 10.479-2.848 79.287-22.22 79.287-22.22l-.465-13.863zM77.246 894.85l-1.374 13.186c.21.397 36.232 19.068 42.24 22.173-1.91.63-44.755 14.353-44.755 14.353l-1.187 14.564 60.728-21.402.011.001.089.008c2.117.18 37.413 2.815 37.413 2.815l1.118-13-37.536-3.01-.017-.011c-.545-.307-14.311-7.506-28.077-14.7l-1.685-.88c-13.463-7.034-26.41-13.794-26.41-13.794l-.558-.303zm610.476-9.5c16.51 9.71 21.888 17.248 24.263 20.516 4.494 6.231 6.776 18.368-4.214 27.423-10.828 8.916-13.483 10.76-14.251 15.614-.023-5.648-2.585-12.836-4.89-17.037-2.864-4.528-2.398-11.717 1.141-24.366 2.282-8.1 2.771-17.855-2.05-22.15zM26.134 465.62c-3.4.023-5.96 1.89-7.544 3.5-2.142 2.17-3.237 4.528-3.214 7.025 0 3.245 1.887 6.815 5.426 10.316l457.374 454.367 15.601-15.684C261.877 694.763 36.333 470.73 36.333 470.73c-3.376-3.361-6.915-5.135-10.199-5.112zM364.38 875.5c6.87.513 20.678 3.244 28.385 6.371 9.617 3.921 17.185 10.573 20.468 27.237 2.702 13.793 4.634 22.196 8.826 24.996a231.77 231.77 0 00-5.935-3.072l-1.146-.573c-.96-.479-1.933-.96-2.91-1.439l-1.757-.86-1.17-.571c-6.226-3.034-12.199-5.906-15.49-7.862-7.545-4.457-10.06-12.65-13.297-24.646-2.072-7.702-5.449-17.994-15.974-19.581zm216.393 23.339c5.798-.327 12.55 1.143 19.443 6.955 10.444 8.788 15.025 12.516 19.705 11.314l.154-.042-.685.204c-8.556 2.599-15.802 6.46-21.964 8.795l-.656.244c-7.475 2.707-16.44-1.377-28.106-5.601-2.189-.817-4.843-1.494-7.707-1.96zm-281.01-11.576c5.076-3.338 18.14-4.295 28.525 7.795 7.318 8.489 9.82 10.726 12.815 11.983l.27.11c.677.27 1.388.497 2.19.743-4.936.14-11.945 1.727-15.345 2.894-8.313 2.894-16.16 3.291-28.548 3.875-7.94.396-22.4 2.24-25.847 10.689 6.287-18.741 13.482-29.874 25.94-38.09zm330.352-7.726c19.42-3.85 35.068-2.59 42.798-.186 5.542 1.703 14.135 7.982 10.619 22.499-2.143 8.915-2.981 14.913-1.42 21.378-2.283-3.174-5.38-5.601-9.292-7.492-8.22-3.99-13.855-11.32-21.19-21.355-5.611-7.702-11.526-15.054-21.515-14.844zm-318.313.864c13.785-5.998 25.265-6.932 37.094-6.302 7.241.257 18.86 4.738 23.006 20.142 3.19 11.81 5.472 18.251 9.78 21.005-2.788-.48-5.996-1.134-9.183-1.843l-1.123-.252c-5.418-1.227-10.623-2.567-13.422-3.413-8.034-2.427-13.506-8.355-21.702-17.69-5.24-5.976-15.765-14.565-24.45-11.647zm302.106 2.264c10.269-2.1 19.094-.35 29.363 13.186 8.476 11.18 11.852 15.194 16.928 16.244-8.615-1.633-19.862.7-27.546 2.008-8.29 1.423-15.485-4.598-25.056-12.557-5.867-4.854-12.574-8.799-21.306-8.262l1.071-1.074c7.382-3.757 16.743-7.561 26.546-9.545zm191.43-37.833l2.98 13.233 12.583.407.862.028.863.028.861.028c6.155.199 11.904.385 12.192.396.356 1.606 2.414 10.364 4.686 19.939l.21.886.211.89 1.061 4.46.211.888.21.883.21.878c-.269.14-5.347 2.83-10.73 5.682l-.752.399-.753.4-.753.398-10.67 5.654 2.958 13.117 87.832-47.822-3.865-16.548-100.407-4.224zm-616.833-1.33L88.4 845.253l-4.168 16.29 86.971 50.483 3.586-13.046s-23.262-13.14-23.821-13.467l7.428-28.614h.078c.79-.004 6.637-.044 12.65-.087l.859-.006 13.062-.093h.036l3.423-13.21zM497.992 702.86c-57.236 0-113.051 19.441-157.9 54.8l95.704 95.107c-1.327-3.99-2.445-8.075-3.237-11.926-2.072-10.293-.326-19.161 13.157-29.43 11.153-8.496 15.159-11.904 16.23-16.968-1.63 8.612.698 19.908 2.002 27.61 1.42 8.309-4.61 15.52-12.527 25.113-3.12 3.804-6.124 8.472-7.359 13.793l5.31 5.275c1-3.734 2.91-7.702 6.263-11.693 8.79-10.446 12.49-15.059 11.31-19.729l-.039-.148.203.683c2.592 8.575 6.445 15.837 8.774 22.014l.244.658c2.7 7.491-1.374 16.454-5.612 28.17-.093.233-.163.513-.256.793l6.473 6.442c.21-.653.373-1.307.629-1.96 4.89-13.187 6.59-18.858 4.051-23.2 1.463 2.183 4.17 6.249 7.064 10.597l.513.77.773 1.161.517.776.773 1.161.513.77c3.918 5.882 7.498 11.244 8.126 12.119 1.258 1.727 2.352 1.564 2.981.467.629-1.12 2.608-4.505 6.264-8.87 5.24-6.277 16.696-7.888 28.92-10.082 1.537-.256 3.028-.536 4.518-.84l116.008-116.649c-45.29-36.642-102.014-56.784-160.39-56.784zM846.832 859c1.094.047 42.496 1.797 45.43 1.914-1.215.658-9.904 5.317-18.872 10.124l-1.718.92-1.145.614c-9.136 4.897-17.765 9.52-18.223 9.767-.112-.493-1.32-5.66-2.575-11.01l-.203-.868A5316.305 5316.305 0 00846.832 859zm-699.893-1.937l-6.007 23.152-38.98-22.662 44.987-.49zm426.637-35.474l-.04.511c-.595 6.967-3.063 18.813-6.107 26.327-.768 1.914-1.7 3.688-2.724 5.392l-9.78 9.849c-3.796 2.287-8.546 4.084-14.693 5.298-13.762 2.707-22.145 4.667-24.94 8.845 4.937-9.195 10.829-21.192 14.158-26.863 4.448-7.562 12.621-10.083 24.613-13.327 7.661-2.1 17.93-5.485 19.513-16.034v.002zm-4.89-52.632c5.985 13.794 6.916 25.3 6.288 37.133-.233 7.258-4.727 18.905-20.096 23.036-11.782 3.197-18.232 5.508-20.957 9.802 1.35-7.865 4.098-19.115 5.496-23.76 2.421-8.051 8.336-13.536 17.65-21.704 5.961-5.275 14.53-15.824 11.62-24.507zm-457.723 13.21l-5.798 11.927 87.251 41.637 22.54-46.702-10.478-5.275-8.164 16.762-1.015 2.084c-3.97 8.149-7.76 15.929-7.936 16.28-.376-.183-18.728-9.001-37.348-17.949l-2.28-1.095-36.772-17.669zm753.542-24.249c-8.918-3.15-17.487.187-20.747 1.774-13.412 6.325-15.136 15.894-15.136 23.549l.862 11.016c.047.303.885 10.246.885 10.246 0 5.321-1.048 11.926-9.291 15.8-4.191 2.008-8.616 2.358-12.481 1.004-3.796-1.354-6.94-4.318-8.872-8.355-2.515-5.345-3.12-9.733-1.84-13.397 1.896-5.162 7.462-8.355 13.348-11.199l.787-.377c0-.047-5.17-11.95-5.17-11.95-11.27 5.135-18.046 10.993-20.56 17.925-.792 2.17-1.188 4.48-1.188 6.978 0 4.668 1.397 9.943 4.215 15.964 3.073 6.442 14.995 26.583 39.329 15.054 15.356-7.27 15.68-18.663 14.384-30.197l-.09-.777-.046-.39-.095-.777c-.097-.778-.198-1.555-.298-2.331-.075-.579-.15-1.155-.222-1.73l-.085-.687c-1.195-9.728-1.544-18.681 8.503-23.49 4.238-2.007 8.103-2.404 11.48-1.167 3.493 1.284 6.287 4.155 8.313 8.543 1.886 3.944 2.305 7.538 1.257 10.712-1.257 3.478-4.843 6.559-10.222 9.056a787.95 787.95 0 002.237 5.111l.273.623c1.326 3.018 2.683 6.099 2.683 6.099 8.359-3.921 14.11-9.08 16.276-15.124 2.166-5.998 1.304-13.21-2.561-21.425-3.959-8.356-9.315-13.77-15.928-16.081zm-435.252 23.806c1.723-5.555 7.987-14.167 22.47-10.643 8.872 2.147 14.857 2.988 21.307 1.424-3.167 2.287-5.566 5.391-7.475 9.312-3.959 8.239-11.294 13.864-21.306 21.216-7.684 5.624-14.996 11.552-14.787 21.565-3.842-19.465-2.584-35.125-.21-42.874zm94.586-50.856c18.698 6.301 29.805 13.513 38.001 26 3.33 5.088 4.285 18.18-7.777 28.614-10.595 9.172-11.433 10.759-12.807 15.263-.116-4.924-1.723-11.95-2.887-15.357-2.888-8.332-3.284-16.197-3.889-28.614-.373-7.958-2.212-22.452-10.641-25.906zm-53.976 3.547c13.505-6.721 27.453-7.398 37.909-6.418 8.056.77 16.579 7.025 18.395 23.55.885 8.285 1.025 14.843 3.702 21.051-3.818-3.944-11.386-8.635-17.114-9.989-11.643-2.707-13.017-7.188-21.446-17.458-5.333-6.488-11.596-12.44-21.446-10.736zm-14.158 8.146c6.24-4.505 18.35-6.792 27.384 4.224 8.895 10.83 10.735 13.514 15.555 14.284-5.612.023-12.784 2.59-16.999 4.901-4.494 2.87-11.666 2.404-24.287-1.144l-.386-.107c-8.002-2.194-17.518-2.593-21.711 2.161 9.663-16.547 17.207-21.939 20.444-24.32zm428.15-266.02L746.915 614.36c-9.478 9.942-13.785 16.034-18.21 26.42l-34.113 85.304a2073.372 2073.372 0 0130.341-26.023c14.6-12.253 26.569-21.799 35.58-28.334 15.276-11.086 21.167-13.233 25.265-9.125 4.052 4.084 1.91 9.989-9.198 25.276-6.543 9.01-16.09 20.982-28.338 35.592a2282.173 2282.173 0 01-27.174 31.718l84.782-37.552c10.036-4.785 15.974-9.336 25.475-19.255L968.15 560.703c-8.802-11.74-23.751-29.967-38.63-44.951-15.23-15.194-33.974-30.458-45.663-39.21zm-385.863.07c-117.825 0-230.853 42.99-318.895 121.13L330.08 747.742c47.549-37.973 106.973-58.908 167.912-58.908 62.056 0 122.342 21.612 170.333 60.822l.303-.303c1.187-1.19 3.772-3.571 7.335-6.792l9.206-22.972 1.173-2.929 1.174-2.93c15.648-39.053 31.013-77.423 31.013-77.479 5.006-11.716 10.082-18.788 20.468-29.64l39.445-39.607c-82.104-59.095-178.949-90.393-280.45-90.393zm86.18 64.72l50.738 13.396-3.306 12.487-.264-.07-.246-.065-15.562-4.116-1.096-.29c-9.52-2.518-19.517-5.165-19.856-5.262-.084.295-1.52 5.749-3.087 11.713l-.23.876a8706.558 8706.558 0 00-3.878 14.788c.337.094 9.081 2.416 17.74 4.715l1.038.275 16.197 4.3-3.354 12.369-16.152-4.266-2.071-.547-14.844-3.924-.464-.123c-.796-.211-1.276-.339-1.35-.36-.311 1.247-2.164 8.34-4.052 15.53l-.257.98c-1.845 7.024-3.656 13.89-4.027 15.232.698.164 38.607 10.246 38.607 10.246l-3.26 12.37-52.346-13.817 25.381-96.437zm-204.61 7.632l.093.35c.107.416 5.38 21.139 10.667 41.904l.622 2.442c4.866 19.11 9.572 37.583 10.087 39.558.335-.079 9.169-2.356 18.265-4.704l1.706-.44c9.287-2.397 18.31-4.729 18.31-4.729l3.19 12.487-52.066 13.303-24.613-96.624 13.739-3.547zm85.341-14.727l8.755 99.354-14.11 1.214-8.733-99.401 14.088-1.167zm39.562-1.588l52.37 3.758-.956 12.813-18.273-1.307-1.135-.081c-9.273-.663-18.449-1.32-18.78-1.342-.023.35-.512 7.252-1.004 14.152l-.064.9c-.47 6.587-.924 12.911-.958 13.235 1.216.115 8.49.647 16.157 1.198l1.024.074 1.025.074 1.025.073c8.352.6 16.272 1.16 16.443 1.171l.349.024-.908 12.766s-35.348-2.52-36.07-2.59c-.021.34-.738 10.419-1.49 21.007l-.097 1.354-.048.677-.096 1.354-1.505 21.142-14.134-1.073 7.125-99.379zM47.51 527.794a5659.82 5659.82 0 00-4.031 4.068l-.56.566-1.978 1.999-.849.858-.564.57A15412.17 15412.17 0 0027.3 548.238l-.06.06-.02.02-.015.015c-20.957 21.169-22.47 49.06-3.749 67.8 3.447 3.431 7.382 6.069 11.69 8.076.605-9.312 5.076-18.695 12.993-26.677l34.463-34.868zm870.529-78.84c-3.167-2.17-4.844-2.1-6.776 0l-14.973 15.077c11.666 8.73 29.852 23.76 45.174 39.21 13.187 13.138 26.065 28.292 34.998 39.73l.958 1.233a323.88 323.88 0 013.094 4.058l14.926-15.03c2.189-2.45 1.63-4.341-.466-7.282-9.757-13.537-21.073-26.7-34.16-39.886-.416-.421-.83-.837-1.24-1.25l-1.223-1.222c-18.204-18.157-30.347-27.777-40.312-34.638zM619.93 92.108c9.99 0 18.093 8.029 18.232 17.995.21-9.896 8.267-17.878 18.186-17.878 10.083 0 18.256 8.192 18.256 18.298a18.23 18.23 0 01-1.255 6.669l-.056.135-.148.26c-.36.638-.681 1.3-.963 1.983l-.063.157-.007.015c-3.169 5.414-9.042 9.055-15.764 9.055-9.966 0-18.046-8.052-18.209-18.018-.21 9.92-8.266 17.878-18.21 17.878-7.497 0-13.924-4.528-16.718-11.04.419 1.541.698 3.128.698 4.785 0 10.106-8.15 18.275-18.232 18.275-7.3 0-13.566-4.306-16.498-10.502l-.151-.326.136.458c.44 1.536.749 3.118.749 4.815 0 10.083-8.174 18.275-18.256 18.275-4.122 0-7.894-1.424-10.944-3.735.791 1.89 1.28 4.131 1.28 6.932v11.226c20.654-4.808 35.324-10.526 59.052-21.705 26.709-12.603 48.015-13.747 63.407-3.361 9.29 6.325 15.717 17.014 17.557 29.617 2.026 14.12-1.77 29.268-10.758 43.645 2.166.35 4.191.863 6.054 1.447l.373.56c3.074-5.835 9.081-9.85 16.113-9.85 2.236 0 4.378.405 6.358 1.145l.14.053.178.103a18.14 18.14 0 002.272 1.083l.152.058.098.057a18.306 18.306 0 019.035 15.8c0 10.012-8.034 18.134-18.023 18.25.28 6.209-.28 13.467-1.816 22.08-2.073 11.32-12.179 44.88-26.29 82.247l6.404 14.26a5.098 5.098 0 01-2.748 6.885l-14.39 5.998c-.466 1.12-.932 2.217-1.397 3.338 21.585 8.939 28.292 29.197 23.448 44.414-4.634 14.634-20.887 27.073-45.686 19.908-41.588-12.136-91.442-18.344-133.24-18.344-41.774 0-91.628 6.208-133.216 18.344-24.73 7.165-41.029-5.274-45.71-19.908-4.75-15.077 1.794-35.125 22.914-44.18l-1.49-3.548-14.508-5.812a5.121 5.121 0 01-2.864-6.862l6.474-14.913c-14.042-37.203-24.078-70.555-26.103-81.827-1.514-8.613-2.073-15.871-1.817-22.08-9.92-.163-17.93-8.261-17.93-18.25a18.306 18.306 0 019.035-15.8l.127-.074.11-.041c.786-.31 1.545-.672 2.273-1.083l.15-.087.18-.069a18.12 18.12 0 016.358-1.144c6.986 0 12.993 3.99 16.067 9.779l.326-.49a42.672 42.672 0 016.054-1.447c-8.965-14.377-12.783-29.524-10.711-43.645 1.84-12.603 8.22-23.292 17.487-29.617 15.415-10.386 36.768-9.242 63.43 3.36 23.728 11.18 39.143 17.225 59.005 21.636v-11.156c0-2.754.49-4.971 1.281-6.862-3.027 2.264-6.753 3.665-10.804 3.665-10.083 0-18.256-8.192-18.256-18.275 0-1.844.35-3.594.861-5.251-2.864 6.371-9.22 10.806-16.649 10.806-10.059 0-18.232-8.169-18.232-18.275 0-1.657.302-3.244.722-4.784-2.818 6.511-9.245 11.04-16.743 11.04-9.966 0-18-7.983-18.209-17.902-.116 9.99-8.22 18.041-18.21 18.041-6.72 0-12.584-3.64-15.745-9.055l-.062-.108-.026-.064a18.226 18.226 0 00-.962-1.983l-.088-.154-.097-.241a18.268 18.268 0 01-1.252-6.67c0-10.105 8.15-18.297 18.233-18.297 9.943 0 18 8.005 18.21 17.924.116-9.989 8.219-18.041 18.208-18.041 10.083 0 18.233 8.169 18.233 18.275 0 1.657-.28 3.244-.699 4.784 2.795-6.488 9.221-11.04 16.72-11.04 10.082 0 18.255 8.17 18.255 18.275 0 1.676-.289 3.256-.726 4.792l-.136.458.152-.326c2.932-6.196 9.198-10.502 16.498-10.502 10.06 0 18.232 8.192 18.232 18.298 0 3.314-.978 6.372-2.515 9.056 2.515-1.587 5.752-2.708 9.734-3.548 8.243-1.68 10.92-6.231 11.736-11.576-7.615-3.991-13.646-10.62-16.836-18.718 9.035-7.399 20.538-11.81 33.112-11.81 12.83 0 24.497 4.598 33.624 12.253-3.33 8.099-9.43 14.68-17.091 18.532.885 5.18 3.563 9.662 11.666 11.32 4.052.84 7.312 1.983 9.92 3.617-1.584-2.684-2.562-5.788-2.562-9.126 0-10.106 8.173-18.298 18.233-18.298 7.428 0 13.785 4.458 16.649 10.853-.512-1.68-.862-3.431-.862-5.275 0-10.106 8.15-18.274 18.233-18.274 7.498 0 13.925 4.55 16.742 11.04-.419-1.541-.722-3.128-.722-4.785 0-10.106 8.173-18.275 18.233-18.275zM498.287 370.521c-54.604 0-109.954 7.912-148.002 21.192-12.737 4.364-18.466 13.63-18.466 22.242 0 1.96.303 3.874.862 5.671 2.515 8.029 11.456 15.66 28.478 10.76 43.52-12.65 93.515-18.835 137.128-18.835 43.637 0 93.631 6.185 137.199 18.835 16.928 4.878 25.893-2.731 28.431-10.76 3.097-9.825-1.933-22.569-17.557-27.913-38.118-13.28-93.468-21.192-148.073-21.192zm28.688-145.076H469.25v3.337c11.224 3.454 19.49 6.348 20.445 40.073-11.69-.723-26.732-4.9-28.827-20.631h-3.447v52.63h3.447c2.095-15.661 17.138-19.909 28.827-20.562-.745 34.191-10.478 40.96-30.108 43.41-19.07 2.334-34.23-5.951-39.26-21.728l-13.668 2.334c-1.397 14.33-8.36 26.303-21.33 30.317-14.972 4.691-27.244 1.587-34.485-7.422-3.68-4.574-9.431-15.217-11.084-20.958 6.869-2.264 15.135-1.237 20.887 7.235l3.26-1.074-12.411-43.877-3.214.91c-.861 9.616-7.59 17.037-15.508 18.625-3.586-7.259-5.751-25.16-1.886-41.59l-1.327-2.265c-5.612 3.291-11.946 10.363-14.181 12.673 1.77 17.762 10.292 48.99 25.567 87.616l14.204 5.694c2.306 1.004 5.286 2.918 3.097 7.936l-5.914 13.63a491.192 491.192 0 002.282 5.111c79.753-25.626 206.985-26.046 286.598 0 .745-1.68 1.467-3.314 2.212-4.971l-6.124-13.747c-1.607-4.014-.233-6.652 3.679-8.145l14.088-5.905c15.298-38.44 23.984-69.527 25.823-87.219-2.328-2.31-8.639-9.382-14.274-12.673l-1.304 2.264c3.889 16.43 1.723 34.332-1.84 41.59-7.963-1.587-14.67-9.008-15.554-18.624l-3.237-.91-12.341 43.877 3.26 1.074c5.798-8.472 13.995-9.5 20.934-7.235-1.7 5.741-7.522 16.384-11.2 20.958-7.173 9.01-19.467 12.113-34.44 7.422-12.923-4.014-19.886-15.987-21.33-30.317l-13.668-2.334c-5.006 15.777-20.189 24.062-39.26 21.728-19.652-2.45-29.362-9.219-30.108-43.41 11.666.653 26.732 4.9 28.828 20.561h3.47v-52.63h-3.47c-2.096 15.731-17.162 19.909-28.828 20.632.978-33.725 9.198-36.619 20.445-40.073v-3.337zM501.92 318.45l13.948 13.91c2.119 2.17 2.119 5.695 0 7.842l-13.948 14.004c-2.166 2.147-5.658 2.147-7.8 0l-13.949-13.91c-2.165-2.241-2.165-5.765 0-7.936l13.948-13.91c2.143-2.264 5.635-2.264 7.8 0zm65.898 11.32c7.987.63 13.086 1.283 23.076 3.127 6.776 1.424 10.944 7.562 9.407 13.513-1.513 5.952-6.566 9.5-13.622 8.286-5.984-.98-12.807-2.054-20.305-2.8-7.125-.818-11.107-5.369-11.037-11.437 0-6.138 5.658-11.063 12.48-10.69zm-127.069 10.69c.023 6.068-3.959 10.62-11.06 11.436-7.522.747-14.345 1.82-20.399 2.8-7.032 1.214-12.062-2.333-13.552-8.285-1.537-5.951 2.631-12.09 9.407-13.513 10.013-1.844 15.066-2.497 23.03-3.127 6.846-.374 12.527 4.55 12.574 10.689zm-30.504-56.55c-4.517.606-7.754 4.084-7.265 7.771.489 3.664 4.54 6.162 9.035 5.578 4.494-.607 7.754-4.084 7.265-7.772-.49-3.664-4.541-6.185-9.035-5.578zm165.56 5.577c-.49 3.688 2.747 7.165 7.265 7.772 4.494.584 8.522-1.914 9.035-5.578.465-3.687-2.771-7.165-7.265-7.772-4.495-.607-8.546 1.914-9.035 5.578zM399.86 209.201c-10.153 7.048-12.225 18.274-7.452 30.714 3.12 8.145 8.01 11.903 11.038 22.079l-.148-.22-.296-.445-.898-1.357-.305-.457-.308-.459a74.238 74.238 0 00-.629-.916l-.322-.457c-3.736-5.24-8.621-10.038-18.517-8.666-15.974 2.217-16.09 22.616-8.639 28.87 2.072 1.728 4.028.607 3.563-1.703-1.048-5.228 1.257-10.643 8.126-11.576 7.94-1.05 15.345 6.465 19.141 14.89 1.14-.513 3.516-1.26 5.17-1.494 1.676-.21 4.144-.14 5.378.024 1.374-9.126 6.45-18.392 14.39-19.535 6.847-1.004 10.55 3.594 10.945 8.915.186 2.334 2.398 2.894 3.889.677 5.495-8.075-.163-27.68-16.114-25.463-10.632 1.492-13.773 8.232-15.943 14.724l-.174.526-.17.524-.168.521-.166.519c-.165.517-.329 1.028-.494 1.53.075-5.65 1.156-9.702 2.269-13.57l.278-.963.139-.48.274-.962c.723-2.569 1.37-5.187 1.65-8.274 1.212-13.28-3.795-23.502-15.507-27.516zm195.365 0c-11.713 4.014-16.742 14.236-15.508 27.516.791 8.683 4.447 13.654 4.61 24.25-.165-.503-.328-1.014-.493-1.531l-.166-.519c-.14-.433-.28-.87-.425-1.308l-.176-.527c-2.168-6.41-5.366-12.988-15.855-14.46-15.95-2.217-21.608 17.388-16.136 25.463 1.513 2.217 3.725 1.657 3.888-.677.42-5.32 4.099-9.919 10.968-8.915 7.917 1.143 13.016 10.41 14.367 19.535 1.234-.164 3.726-.234 5.379-.024 1.676.234 4.052.98 5.17 1.494 3.795-8.425 11.223-15.94 19.163-14.89 6.87.933 9.175 6.348 8.127 11.576-.466 2.31 1.49 3.43 3.54 1.704 7.474-6.255 7.357-26.654-8.616-28.87-12.621-1.751-17.115 6.534-21.423 12.976 3.027-10.176 7.894-13.934 11.014-22.08 4.774-12.439 2.724-23.665-7.428-30.713zm-254.86-53.284c-5.612 3.781-9.5 10.596-10.711 18.742-1.84 12.533 2.84 26.63 13.226 39.816 2.352-.21 4.564-.303 6.73-.397 16.625-1.05 21.841-21.635 43.473-25.86 25.172-4.924 45.244 18.789 60.845 17.272v-21.87c-21.958-4.504-39.631-10.875-65.734-23.105-21.307-10.082-37.444-11.646-47.829-4.598zm267.434 4.598c-26.126 12.23-42.077 18.018-65.805 23.153v21.822c15.648 1.517 35.744-22.196 60.962-17.271 21.585 4.224 26.778 24.81 43.427 25.86 2.12.093 4.401.186 6.66.396 10.385-13.186 15.159-27.283 13.273-39.816-1.235-8.146-5.077-14.96-10.758-18.742-10.386-7.048-26.476-5.484-47.759 4.598zm-102.27-9.966c6.543 2.848 11.13 9.336 11.13 16.968 0 8.612-5.774 15.684-13.645 17.878 7.87 2.17 13.646 9.312 13.646 17.854 0 4.131-1.42 7.935-3.726 11.04h13.599v-42.664c0-15.614-6.683-20.119-21.004-21.076zm-14.693-.07c-14.833.864-21.772 5.252-21.772 21.146v42.663h14.274c-2.282-3.104-3.702-6.908-3.702-11.039 0-8.542 5.774-15.684 13.622-17.854-7.848-2.194-13.622-9.266-13.622-17.878 0-7.655 4.634-14.214 11.2-17.038zm198.23-42.22c10.059 0 18.232 8.192 18.232 18.274 0 6.208-3.074 11.647-7.777 14.96 2.677-1.563 5.774-2.52 9.104-2.52 10.06 0 18.233 8.192 18.233 18.275 0 9.499-7.242 17.2-16.463 18.11 9.594.514 17.255 8.426 17.255 18.182 0 10.082-8.174 18.275-18.256 18.275-2.236 0-4.378-.405-6.358-1.145l-.144-.055-.173-.1a18.13 18.13 0 00-2.273-1.083l-.156-.061-.094-.054c-5.402-3.174-9.035-9.055-9.035-15.777 0-9.5 7.242-17.201 16.463-18.111-9.617-.537-17.231-8.426-17.231-18.181a18.19 18.19 0 017.777-14.937c-2.701 1.563-5.775 2.52-9.105 2.52-10.082 0-18.255-8.192-18.255-18.298 0-2.352.445-4.602 1.255-6.669l.055-.137.149-.258c.359-.638.68-1.3.963-1.983l.062-.16.008-.012c3.169-5.414 9.042-9.055 15.763-9.055zm-382.069 0c6.706 0 12.574 3.64 15.741 9.055l.068.119.021.053a18.4 18.4 0 00.96 1.983l.095.165.092.23a18.235 18.235 0 011.256 6.67c0 10.105-8.174 18.297-18.233 18.297-3.33 0-6.427-.957-9.105-2.52 4.68 3.29 7.778 8.752 7.778 14.937 0 9.755-7.638 17.644-17.232 18.18 9.222.911 16.44 8.613 16.44 18.112a18.277 18.277 0 01-9.024 15.777l-.122.07-.116.045a18.13 18.13 0 00-2.272 1.083l-.145.083-.186.072a18.163 18.163 0 01-6.368 1.145c-10.082 0-18.255-8.193-18.255-18.275 0-9.756 7.66-17.668 17.254-18.181-9.22-.91-16.463-8.612-16.463-18.111 0-10.083 8.174-18.275 18.256-18.275 3.33 0 6.404.957 9.082 2.52-4.68-3.313-7.778-8.752-7.778-14.96 0-10.082 8.173-18.274 18.256-18.274zM522.83.712v7.375c-13.668 2.194-14.46 12.136-13.482 20.188l.474.04c7.31.572 16.495-.508 18.34-12.386h6.963v43.458h-6.962c-1.787-11.653-10.575-12.895-17.811-12.457l-.48.031-.238.018-.472.038.023 14.237c14.46 4.644 24.985 18.204 24.985 34.285 0 2.754-.349 5.205-1 7.772-8.733-7.259-19.56-11.646-31.623-12.487V71.78h-6.962V90.8c-11.899.7-22.727 5.018-31.505 12.02-.536-2.45-.815-4.668-.815-7.282 0-15.917 10.362-29.407 24.682-34.239V47.017c-.235-.02-.473-.039-.712-.056l-.481-.031c-7.256-.438-16.045.804-17.854 12.457h-6.893V15.929h6.893c1.886 12.136 11.456 13 18.838 12.346.931-8.052.233-17.994-13.436-20.188V.712h49.528zm-24.822 32.395c-3.61 0-6.52 2.94-6.52 6.535 0 3.64 2.91 6.558 6.52 6.558 3.61 0 6.52-2.917 6.52-6.558 0-3.595-2.91-6.535-6.52-6.535z" fill="#FFF" fill-rule="evenodd" opacity=".03"/></svg>